# xmcd
#
# Track frame offsets: 
#        150
#        12975
#        23307
#        36927
#        46130
#        57957
#        67805
#        78950
#        90725
#        99902
#        113720
#        123295
#        131780
#        142387
#        154125
#        165635
#        176425
#        188127
#        197925
#        207340
#        216502
#
# Disc length: 3013 seconds
#
# Revision: 0
# Processed by: cddbd v1.5.2PL0 Copyright (c) Steve Scherf et al.
# Submitted via: ExactAudioCopy v0.95b3
#
DISCID=220bc315
DTITLE=Herman's Hermits  - Introducing Herman's Hermits [Japan 1993]  
DYEAR=1900
DGENRE=
TTITLE0=Mrs. Brown You're Got A Lovely Daughter
TTITLE1=Can't You Hear My Heartbeat
TTITLE2=The End Of The World
TTITLE3=Wonderful World
TTITLE4=Show Me Girl
TTITLE5=Sea Cruise
TTITLE6=For Your Love
TTITLE7=I'm Into Something Good
TTITLE8=Silhouettes
TTITLE9=I Understand
TTITLE10=Dream On
TTITLE11=I'm Henry The Eighth I Am
TTITLE12=Walkin' With My Angel
TTITLE13=Travellin' Light
TTITLE14=Listen People
TTITLE15=You Won't Be Leaving
TTITLE16=Leaning On The Lamp Post
TTITLE17=This Door Swings Both Ways
TTITLE18=Dandy
TTITLE19=East West
TTITLE20=Hold On
EXTD=
EXTT0=
EXTT1=
EXTT2=
EXTT3=
EXTT4=
EXTT5=
EXTT6=
EXTT7=
EXTT8=
EXTT9=
EXTT10=
EXTT11=
EXTT12=
EXTT13=
EXTT14=
EXTT15=
EXTT16=
EXTT17=
EXTT18=
EXTT19=
EXTT20=
PLAYORDER=
